<mxfile host="app.diagrams.net" modified="2021-05-11T03:00:43.924Z" agent="5.0 (X11; CrOS aarch64 13816.64.0) AppleWebKit/537.36 (KHTML, like Gecko) Chrome/90.0.4430.100 Safari/537.36" etag="XPUW2Wj3aUJ0VYMJ93Ye" version="14.6.11" type="github">
  <diagram id="rr99vOCNT50kwSyYH-od" name="Page-1">
    <mxGraphModel dx="582" dy="415" grid="1" gridSize="10" guides="1" tooltips="1" connect="1" arrows="1" fold="1" page="1" pageScale="1" pageWidth="850" pageHeight="1100" math="0" shadow="0">
      <root>
        <mxCell id="0" />
        <mxCell id="1" parent="0" />
        <mxCell id="Q_3v1buhi6g9QwbVVnev-9" style="edgeStyle=orthogonalEdgeStyle;rounded=0;orthogonalLoop=1;jettySize=auto;html=1;exitX=0.5;exitY=1;exitDx=0;exitDy=0;exitPerimeter=0;entryX=0.5;entryY=0;entryDx=0;entryDy=0;" edge="1" parent="1" source="Q_3v1buhi6g9QwbVVnev-1" target="Q_3v1buhi6g9QwbVVnev-2">
          <mxGeometry relative="1" as="geometry" />
        </mxCell>
        <mxCell id="Q_3v1buhi6g9QwbVVnev-1" value="Start" style="strokeWidth=2;html=1;shape=mxgraph.flowchart.terminator;whiteSpace=wrap;" vertex="1" parent="1">
          <mxGeometry x="250" y="190" width="100" height="60" as="geometry" />
        </mxCell>
        <mxCell id="Q_3v1buhi6g9QwbVVnev-10" style="edgeStyle=orthogonalEdgeStyle;rounded=0;orthogonalLoop=1;jettySize=auto;html=1;exitX=0.5;exitY=1;exitDx=0;exitDy=0;entryX=0.5;entryY=0;entryDx=0;entryDy=0;entryPerimeter=0;" edge="1" parent="1" source="Q_3v1buhi6g9QwbVVnev-2" target="Q_3v1buhi6g9QwbVVnev-3">
          <mxGeometry relative="1" as="geometry" />
        </mxCell>
        <mxCell id="Q_3v1buhi6g9QwbVVnev-2" value="Get income and looks&amp;nbsp;" style="shape=parallelogram;html=1;strokeWidth=2;perimeter=parallelogramPerimeter;whiteSpace=wrap;rounded=1;arcSize=12;size=0.23;" vertex="1" parent="1">
          <mxGeometry x="250" y="290" width="100" height="60" as="geometry" />
        </mxCell>
        <mxCell id="Q_3v1buhi6g9QwbVVnev-11" style="edgeStyle=orthogonalEdgeStyle;rounded=0;orthogonalLoop=1;jettySize=auto;html=1;exitX=0.5;exitY=1;exitDx=0;exitDy=0;exitPerimeter=0;entryX=0.5;entryY=0;entryDx=0;entryDy=0;entryPerimeter=0;" edge="1" parent="1" source="Q_3v1buhi6g9QwbVVnev-3" target="Q_3v1buhi6g9QwbVVnev-5">
          <mxGeometry relative="1" as="geometry" />
        </mxCell>
        <mxCell id="Q_3v1buhi6g9QwbVVnev-12" style="edgeStyle=orthogonalEdgeStyle;rounded=0;orthogonalLoop=1;jettySize=auto;html=1;exitX=1;exitY=0.5;exitDx=0;exitDy=0;exitPerimeter=0;entryX=0.5;entryY=0;entryDx=0;entryDy=0;" edge="1" parent="1" source="Q_3v1buhi6g9QwbVVnev-3" target="Q_3v1buhi6g9QwbVVnev-4">
          <mxGeometry relative="1" as="geometry" />
        </mxCell>
        <mxCell id="Q_3v1buhi6g9QwbVVnev-3" value="Try income and looks" style="strokeWidth=2;html=1;shape=mxgraph.flowchart.decision;whiteSpace=wrap;" vertex="1" parent="1">
          <mxGeometry x="250" y="380" width="100" height="100" as="geometry" />
        </mxCell>
        <mxCell id="Q_3v1buhi6g9QwbVVnev-17" style="edgeStyle=orthogonalEdgeStyle;rounded=0;orthogonalLoop=1;jettySize=auto;html=1;exitX=0.5;exitY=1;exitDx=0;exitDy=0;entryX=0.5;entryY=0;entryDx=0;entryDy=0;entryPerimeter=0;" edge="1" parent="1" source="Q_3v1buhi6g9QwbVVnev-4" target="Q_3v1buhi6g9QwbVVnev-8">
          <mxGeometry relative="1" as="geometry" />
        </mxCell>
        <mxCell id="Q_3v1buhi6g9QwbVVnev-4" value="print(&quot;{0} is not a valid answer.&quot;)" style="shape=parallelogram;html=1;strokeWidth=2;perimeter=parallelogramPerimeter;whiteSpace=wrap;rounded=1;arcSize=12;size=0.23;" vertex="1" parent="1">
          <mxGeometry x="470" y="660" width="100" height="60" as="geometry" />
        </mxCell>
        <mxCell id="Q_3v1buhi6g9QwbVVnev-13" style="edgeStyle=orthogonalEdgeStyle;rounded=0;orthogonalLoop=1;jettySize=auto;html=1;exitX=0.5;exitY=1;exitDx=0;exitDy=0;exitPerimeter=0;entryX=0.5;entryY=0;entryDx=0;entryDy=0;" edge="1" parent="1" source="Q_3v1buhi6g9QwbVVnev-5" target="Q_3v1buhi6g9QwbVVnev-6">
          <mxGeometry relative="1" as="geometry" />
        </mxCell>
        <mxCell id="Q_3v1buhi6g9QwbVVnev-14" style="edgeStyle=orthogonalEdgeStyle;rounded=0;orthogonalLoop=1;jettySize=auto;html=1;exitX=0.5;exitY=1;exitDx=0;exitDy=0;exitPerimeter=0;entryX=0.589;entryY=-0.031;entryDx=0;entryDy=0;entryPerimeter=0;" edge="1" parent="1" source="Q_3v1buhi6g9QwbVVnev-5" target="Q_3v1buhi6g9QwbVVnev-7">
          <mxGeometry relative="1" as="geometry" />
        </mxCell>
        <mxCell id="Q_3v1buhi6g9QwbVVnev-5" value="if income OR looks = yes" style="strokeWidth=2;html=1;shape=mxgraph.flowchart.decision;whiteSpace=wrap;" vertex="1" parent="1">
          <mxGeometry x="250" y="510" width="100" height="100" as="geometry" />
        </mxCell>
        <mxCell id="Q_3v1buhi6g9QwbVVnev-15" style="edgeStyle=orthogonalEdgeStyle;rounded=0;orthogonalLoop=1;jettySize=auto;html=1;exitX=0.5;exitY=1;exitDx=0;exitDy=0;entryX=0.5;entryY=0;entryDx=0;entryDy=0;entryPerimeter=0;" edge="1" parent="1" source="Q_3v1buhi6g9QwbVVnev-6" target="Q_3v1buhi6g9QwbVVnev-8">
          <mxGeometry relative="1" as="geometry" />
        </mxCell>
        <mxCell id="Q_3v1buhi6g9QwbVVnev-6" value="print(&quot;You can date the grandchild.&quot;)" style="shape=parallelogram;html=1;strokeWidth=2;perimeter=parallelogramPerimeter;whiteSpace=wrap;rounded=1;arcSize=12;size=0.23;" vertex="1" parent="1">
          <mxGeometry x="180" y="660" width="100" height="60" as="geometry" />
        </mxCell>
        <mxCell id="Q_3v1buhi6g9QwbVVnev-16" style="edgeStyle=orthogonalEdgeStyle;rounded=0;orthogonalLoop=1;jettySize=auto;html=1;exitX=0.5;exitY=1;exitDx=0;exitDy=0;entryX=0.5;entryY=0;entryDx=0;entryDy=0;entryPerimeter=0;" edge="1" parent="1" source="Q_3v1buhi6g9QwbVVnev-7" target="Q_3v1buhi6g9QwbVVnev-8">
          <mxGeometry relative="1" as="geometry" />
        </mxCell>
        <mxCell id="Q_3v1buhi6g9QwbVVnev-7" value="print(&quot;You cannot date the grandchild.&quot;)" style="shape=parallelogram;html=1;strokeWidth=2;perimeter=parallelogramPerimeter;whiteSpace=wrap;rounded=1;arcSize=12;size=0.23;" vertex="1" parent="1">
          <mxGeometry x="320" y="660" width="100" height="60" as="geometry" />
        </mxCell>
        <mxCell id="Q_3v1buhi6g9QwbVVnev-8" value="Stop" style="strokeWidth=2;html=1;shape=mxgraph.flowchart.terminator;whiteSpace=wrap;" vertex="1" parent="1">
          <mxGeometry x="250" y="790" width="100" height="60" as="geometry" />
        </mxCell>
      </root>
    </mxGraphModel>
  </diagram>
</mxfile>
